<svg width="16" height="16" fill="none" xmlns="http://www.w3.org/2000/svg"><g clip-path="url(#a)"><path d="M6.137 2.49c.636-.023 1.251-.295 1.758-.777l-.008.007C8.45 1.217 9.118.936 9.81.91h.005c.352-.048.708-.019 1.052.086l-.021-.005c.26.093.402.233.423.42.032.175-.042.318-.224.43-.209.122-.435.193-.666.208h-.005a1 1 0 0 1-.791-.124l.007.004a.59.59 0 0 1-.178-.17.757.757 0 0 1-.109-.245V1.51c-.267.027-.435.1-.504.22a.563.563 0 0 0-.088.342v-.002c.032.187.203.354.512.5a2.378 2.378 0 0 0 1.311.118l-.016.003h.017c.474 0 .914-.183 1.278-.495l-.008.006a.937.937 0 0 0 .235-.39c.049-.153.064-.32.044-.484v.005c-.063-.4-.332-.736-.806-1.009A3.342 3.342 0 0 0 9.248.057L9.27.053c-1.108.132-1.814.425-2.118.88-.419.513-.982.8-1.57.8H5.56h.001a1.326 1.326 0 0 1-.723-.064l.012.004a.421.421 0 0 1-.192-.129.577.577 0 0 1-.12-.227v-.004a.38.38 0 0 1 .038-.2.273.273 0 0 1 .127-.128h.002a1.21 1.21 0 0 1 .45-.15h.006c.172-.014.346-.004.516.032L5.664.865c.151.024.29.07.419.136L6.07.997a.37.37 0 0 0 .152-.13V.864a.213.213 0 0 0 .024-.151v.001c-.032-.146-.149-.25-.351-.31A1.925 1.925 0 0 0 5.15.357l.01-.002c-.554.067-.877.22-.967.46-.082.177-.119.38-.105.583v-.003c.047.203.132.39.25.542.117.153.262.267.422.334l.007.003a2.192 2.192 0 0 0 1.38.215l-.013.002.003-.002Zm7.499 3.158c-.342.106-.71.2-1.104.28-.394.08-.81.146-1.247.197-.437.054-.9.098-1.39.132-.49.034-.997.05-1.52.05-.543 0-1.06-.017-1.55-.05a21.033 21.033 0 0 1-2.654-.35c-.395-.08-.762-.167-1.104-.262a6.609 6.609 0 0 1-1.484-.64l.047.024a1.842 1.842 0 0 1-.685-.652l-.003-.005c.062.578.143 1.082.248 1.575l-.016-.086c.123.59.246 1.067.388 1.532l-.028-.102a3.224 3.224 0 0 0-.458.423l.002-.003c-.145.163-.28.34-.402.53l-.006.01a4.07 4.07 0 0 0-.52 1.202l-.005.026a4.858 4.858 0 0 0-.144 1.315v-.007c.019.444.12.854.285 1.212l-.005-.013c.17.364.393.686.656.95l.005.005c.257.26.557.447.878.546l.015.004c.332.088.675.09 1.007.007l-.016.003c.16-.032.301-.085.436-.155l-.012.005c.144-.073.285-.136.423-.19h-.017c-.275 0-.548-.062-.805-.186l.015.007a2.84 2.84 0 0 1-.75-.545l.006.005a3.255 3.255 0 0 1-.64-.847l-.007-.012a3.002 3.002 0 0 1-.327-1.104l-.001-.013a3.244 3.244 0 0 1 .002-1.127l-.002.018c.067-.365.188-.71.356-1.02l-.005.01c.043-.053.083-.106.12-.159.037-.053.077-.106.12-.16.096.307.2.607.312.9.111.293.232.58.362.86.256.493.517.97.784 1.429.266.46.533.922.799 1.386.1.231.2.508.284.795l.012.045c.067.225.13.5.178.781l.006.038c.18.304.39.563.63.774l.01.008c.238.207.514.377.81.492l.02.008c.328.146.715.268 1.115.343l.036.006c.358.07.772.11 1.193.11h.086a6.53 6.53 0 0 0 1.277-.128l-.046.007a6.09 6.09 0 0 0 1.25-.378l-.05.018c.284-.117.554-.285.8-.498l-.01.009a2.96 2.96 0 0 0 .625-.778l.006-.01h.048c.042-.24.098-.507.167-.8.08-.33.175-.615.29-.884l-.01.025c.255-.466.516-.926.783-1.38.267-.452.533-.932.8-1.438.346-.782.635-1.602.861-2.45l.025-.108c.238-.88.422-1.78.553-2.694l.015-.124a2.151 2.151 0 0 1-.707.683l-.012.007c-.436.26-.895.448-1.37.56l-.035.008v-.002ZM3.068 4.268c.341.106.709.2 1.103.28.395.08.81.146 1.247.197.437.054.898.094 1.383.12.485.027.993.04 1.524.04.543 0 1.058-.013 1.543-.04.485-.026.946-.066 1.383-.12.437-.053.85-.123 1.239-.209.389-.086.759-.176 1.11-.27a5.533 5.533 0 0 0 1.657-.76l-.034.02c.357-.265.536-.532.536-.799a.937.937 0 0 0-.067-.315.773.773 0 0 0-.164-.253v-.002a2.145 2.145 0 0 0-.65-.483l-.014-.006a.642.642 0 0 1 .156.207l.002.002a.6.6 0 0 1 .064.27c0 .28-.165.534-.496.76a5.053 5.053 0 0 1-1.448.611l-.038.008c-.618.16-1.322.297-2.11.41-.752.109-1.624.17-2.507.17h-.121.006-.087c-.884 0-1.758-.058-2.618-.171l.107.011a16.71 16.71 0 0 1-2.235-.429l.133.03a5.57 5.57 0 0 1-1.492-.66l.037.02c-.33-.226-.496-.473-.496-.74a.81.81 0 0 1 .074-.342l-.002.003a.94.94 0 0 1 .26-.317l.003-.003c-.329.15-.643.346-.938.583l.02-.014c-.183.134-.305.373-.312.65.02.28.215.554.583.82a5.338 5.338 0 0 0 1.617.714l.04.008h.002Z" fill="#fff"/></g><defs><clipPath id="a"><path fill="#fff" d="M0 0h16v16H0z"/></clipPath></defs></svg>